<svg width="77" height="89" viewBox="0 0 77 89" fill="none" xmlns="http://www.w3.org/2000/svg">
<path d="M0 82.1375C0 85.3775 2.6266 88.0041 5.86667 88.0041H70.4C73.6401 88.0041 76.2667 85.3775 76.2667 82.1375V77.7374C76.2485 77.4351 76.1547 77.1421 75.9939 76.8853L68.9333 67V36.6708C68.9333 34.2407 66.9634 32.2708 64.5333 32.2708H61.7643C61.9711 31.6914 62.1603 31.115 62.3436 30.5386C66.0496 28.436 68.7635 24.9418 69.8837 20.8308C72.0383 12.5045 66.9841 4.00955 66.7671 3.65169C66.44 3.11242 65.8049 2.84258 65.1897 2.98158C64.5746 3.12057 64.1171 3.63727 64.0537 4.26475C63.7604 7.18635 62.0957 9.75889 54.7081 13.5546C52.5326 14.5487 50.8434 16.3694 50.0149 18.6132C49.1865 20.8571 49.2873 23.3387 50.2949 25.508C49.1861 27.4616 48.1507 29.4034 47.2413 31.2837C46.6063 32.5905 46.0299 33.8958 45.4813 35.1997L45.496 17.6041C45.4661 17.4059 45.423 17.2099 45.3669 17.0174L41.4128 2.49742C41.0117 1.02311 39.673 0 38.1451 0C36.6172 0 35.2785 1.02311 34.8773 2.49742L30.8601 17.2169C30.8337 17.3456 30.8161 17.4759 30.8073 17.607V30.6442L23.6691 13.4153C23.0278 11.9427 21.3307 11.2482 19.8411 11.8489L7.63987 16.8928C6.14276 17.5155 5.4322 19.2325 6.05147 20.731L10.8709 32.3573C8.81446 32.7683 7.3339 34.5736 7.33333 36.6708V67L0.2728 76.8853C0.112154 77.1421 0.0183685 77.4351 0 77.7374L0 82.1375ZM73.3333 82.1375C73.3333 83.7575 72.02 85.0708 70.4 85.0708H5.86667C4.24663 85.0708 2.93333 83.7575 2.93333 82.1375V79.2041H24.3261L26.8297 81.7077C27.1047 81.9828 27.4777 82.1374 27.8667 82.1375H48.4C48.7889 82.1374 49.1619 81.9828 49.4369 81.7077L51.9405 79.2041H73.3333V82.1375ZM38.1333 79.2041H28.4739L26.6112 77.3415L27.4575 74.8041H48.8092L49.6555 77.3415L47.7928 79.2041H38.1333ZM52.5492 27.4528L54.8548 28.4897C56.3332 29.1556 57.8233 29.8273 59.2827 30.4785C58.9761 31.3834 58.6417 32.2957 58.2824 33.2065C58.1357 33.601 57.9612 34 57.7969 34.3974C55.4325 33.7053 53.1592 32.7334 51.0253 31.5022C50.8611 31.4142 50.7027 31.3336 50.5413 31.2456C51.1705 29.996 51.832 28.7332 52.5492 27.4528ZM56.0487 16.1594C61.2025 13.5106 64.2532 11.1288 65.7859 8.39342C67.3916 12.0776 67.8293 16.1656 67.0399 20.1062C66.1095 23.4391 63.9031 26.271 60.8989 27.9881C59.2768 27.2636 57.6591 26.5376 56.0589 25.8174L53.0376 24.4578C52.2997 22.9633 52.2038 21.2323 52.7722 19.6654C53.3407 18.0986 54.5241 16.8317 56.0487 16.158V16.1594ZM49.2668 33.8841C49.39 33.9501 49.5117 34.0117 49.6364 34.0792C51.8476 35.3422 54.1906 36.3589 56.6236 37.1108C54.5647 41.5166 52.2127 45.7795 49.5836 49.8708H45.4667V43.9645C46.4685 40.5104 47.7391 37.14 49.2668 33.8841ZM39.6 49.8708V35.2041C39.6 34.3941 38.9433 33.7374 38.1333 33.7374C37.3233 33.7374 36.6667 34.3941 36.6667 35.2041V49.8708H33.7333V22.0041C34.5945 22.6673 35.5992 23.1194 36.6667 23.3241V27.8708C36.6667 28.6808 37.3233 29.3374 38.1333 29.3374C38.9433 29.3374 39.6 28.6808 39.6 27.8708V23.3241C40.6744 23.1191 41.6853 22.6639 42.5509 21.9953L42.5333 43.7504C42.5333 43.7665 42.526 43.7856 42.526 43.8017V43.834L42.5333 49.8708H39.6ZM42.4615 17.5117C41.7401 19.2811 40.05 20.4646 38.1407 20.5374C36.2311 20.4635 34.5416 19.2788 33.8213 17.5088L35.1868 12.5074C37.0481 13.4362 39.2377 13.4362 41.0989 12.5074L42.4615 17.5117ZM38.5821 3.27182L40.3201 9.65182C39.6508 10.0215 38.9058 10.2332 38.1421 10.2708C37.3788 10.2328 36.6343 10.0206 35.9656 9.65036L37.708 3.27182C37.7795 3.09316 37.9526 2.97602 38.1451 2.97602C38.3375 2.97602 38.5106 3.09316 38.5821 3.27182ZM20.9733 14.5534L22.0953 17.2624L16.6687 19.5093C16.1695 19.6993 15.813 20.1456 15.7382 20.6745C15.6633 21.2034 15.8819 21.7311 16.3088 22.0522C16.7357 22.3732 17.3033 22.4368 17.7907 22.2182L23.2173 19.9713L24.3408 22.6817L21.6245 23.8066C20.9775 24.0744 20.61 24.7622 20.7471 25.4489C20.8841 26.1356 21.4875 26.6296 22.1877 26.6285C22.3799 26.6278 22.5702 26.59 22.748 26.517L25.4628 25.3921L26.5848 28.1025L21.1581 30.3494C20.5111 30.6172 20.1436 31.305 20.2807 31.9917C20.4177 32.6784 21.0211 33.1724 21.7213 33.1713C21.9135 33.1706 22.1038 33.1328 22.2816 33.0598L27.7083 30.8129L29.4081 34.9196L30.8 38.0876V49.8708H21.3077L8.75893 19.6046L20.9733 14.5534ZM10.2667 36.6708C10.2667 35.8607 10.9233 35.2041 11.7333 35.2041H12.0516L18.1324 49.8708H17.6C16.79 49.8708 16.1333 50.5274 16.1333 51.3374C16.1333 52.1475 16.79 52.8041 17.6 52.8041H58.6667C59.4767 52.8041 60.1333 52.1475 60.1333 51.3374C60.1333 50.5274 59.4767 49.8708 58.6667 49.8708H53.042C55.98 45.2033 58.5204 40.2971 60.6364 35.2041H64.5333C65.3433 35.2041 66 35.8607 66 36.6708V66.0041H10.2667V36.6708ZM9.55533 68.9374H66.7113L71.9503 76.2708H52.3908L51.2585 72.874C51.059 72.2748 50.4982 71.8706 49.8667 71.8708H26.4C25.7684 71.8706 25.2077 72.2748 25.0081 72.874L23.8759 76.2708H4.3164L9.55533 68.9374Z" fill="url(#paint0_linear_13_109)"/>
<path d="M60.0849 25.2938C60.3611 25.2935 60.6316 25.2152 60.8652 25.068C63.4512 23.3927 65.216 20.7096 65.7301 17.6716C65.8111 16.8656 65.2234 16.1466 64.4175 16.0656C63.6115 15.9846 62.8925 16.5723 62.8115 17.3782C62.3824 19.5154 61.1145 21.3913 59.2915 22.5864C58.7396 22.9356 58.4852 23.6077 58.6674 24.2349C58.8496 24.862 59.4245 25.2932 60.0776 25.2924L60.0849 25.2938Z" fill="url(#paint1_linear_13_109)"/>
<defs>
<linearGradient id="paint0_linear_13_109" x1="73.1419" y1="82.8706" x2="-33.4125" y2="48.5516" gradientUnits="userSpaceOnUse">
<stop offset="0.0520833" stop-color="#1A9079"/>
<stop offset="0.994792" stop-color="#2177B6"/>
</linearGradient>
<linearGradient id="paint1_linear_13_109" x1="65.4455" y1="24.7551" x2="55.2886" y2="21.8415" gradientUnits="userSpaceOnUse">
<stop offset="0.0520833" stop-color="#1A9079"/>
<stop offset="0.994792" stop-color="#2177B6"/>
</linearGradient>
</defs>
</svg>
