<svg width="78" height="88" viewBox="0 0 78 88" fill="none" xmlns="http://www.w3.org/2000/svg">
<path d="M13.4666 79.2H39.8666V82.1333H13.4666V79.2Z" fill="url(#paint0_linear_43_423)"/>
<path d="M70.6666 13.2H53.0666V7.33333C53.0616 3.28496 49.7817 0.00501303 45.7333 0H7.59997C3.55159 0.00501303 0.271645 3.28496 0.266632 7.33333V80.6667C0.271645 84.715 3.55159 87.995 7.59997 88H45.7333C49.7817 87.995 53.0616 84.715 53.0666 80.6667V51.3333H70.6666C74.715 51.3283 77.995 48.0484 78 44V20.5333C77.995 16.485 74.715 13.205 70.6666 13.2ZM36.9333 2.93333V5.86667C36.9333 6.67663 36.2766 7.33333 35.4666 7.33333H17.8666C17.0567 7.33333 16.4 6.67663 16.4 5.86667V2.93333H36.9333ZM50.1333 80.6667C50.1333 83.0965 48.1632 85.0667 45.7333 85.0667H7.59997C5.17008 85.0667 3.19997 83.0965 3.19997 80.6667V7.33333C3.19997 4.90345 5.17008 2.93333 7.59997 2.93333H13.4666V5.86667C13.4666 8.29655 15.4367 10.2667 17.8666 10.2667H35.4666C37.8965 10.2667 39.8666 8.29655 39.8666 5.86667V2.93333H45.7333C48.1632 2.93333 50.1333 4.90345 50.1333 7.33333V13.2H32.5333C28.4849 13.205 25.205 16.485 25.2 20.5333V44C25.205 48.0484 28.4849 51.3283 32.5333 51.3333H36.9333V62.1708L47.9333 51.3333H50.1333V80.6667ZM75.0666 44C75.0666 46.4299 73.0965 48.4 70.6666 48.4H46.7309L39.8666 55.1626V48.4H32.5333C30.1034 48.4 28.1333 46.4299 28.1333 44V20.5333C28.1333 18.1035 30.1034 16.1333 32.5333 16.1333H70.6666C73.0965 16.1333 75.0666 18.1035 75.0666 20.5333V44Z" fill="url(#paint1_linear_43_423)"/>
<path d="M34 22H39.8666V24.9333H34V22Z" fill="url(#paint2_linear_43_423)"/>
<path d="M44.2666 22H69.2V24.9333H44.2666V22Z" fill="url(#paint3_linear_43_423)"/>
<path d="M34 30.8H39.8666V33.7333H34V30.8Z" fill="url(#paint4_linear_43_423)"/>
<path d="M44.2666 30.8H69.2V33.7333H44.2666V30.8Z" fill="url(#paint5_linear_43_423)"/>
<path d="M34 39.6H39.8666V42.5333H34V39.6Z" fill="url(#paint6_linear_43_423)"/>
<path d="M44.2666 39.6H69.2V42.5333H44.2666V39.6Z" fill="url(#paint7_linear_43_423)"/>
<defs>
<linearGradient id="paint0_linear_43_423" x1="38.785" y1="81.9622" x2="35.4447" y2="70.7897" gradientUnits="userSpaceOnUse">
<stop offset="0.0520833" stop-color="#1A9079"/>
<stop offset="0.994792" stop-color="#2177B6"/>
</linearGradient>
<linearGradient id="paint1_linear_43_423" x1="74.8151" y1="82.8667" x2="-33.3926" y2="47.3434" gradientUnits="userSpaceOnUse">
<stop offset="0.0520833" stop-color="#1A9079"/>
<stop offset="0.994792" stop-color="#2177B6"/>
</linearGradient>
<linearGradient id="paint2_linear_43_423" x1="39.6263" y1="24.7622" x2="33.799" y2="20.4308" gradientUnits="userSpaceOnUse">
<stop offset="0.0520833" stop-color="#1A9079"/>
<stop offset="0.994792" stop-color="#2177B6"/>
</linearGradient>
<linearGradient id="paint3_linear_43_423" x1="68.1784" y1="24.7622" x2="64.6765" y2="13.6996" gradientUnits="userSpaceOnUse">
<stop offset="0.0520833" stop-color="#1A9079"/>
<stop offset="0.994792" stop-color="#2177B6"/>
</linearGradient>
<linearGradient id="paint4_linear_43_423" x1="39.6263" y1="33.5622" x2="33.799" y2="29.2308" gradientUnits="userSpaceOnUse">
<stop offset="0.0520833" stop-color="#1A9079"/>
<stop offset="0.994792" stop-color="#2177B6"/>
</linearGradient>
<linearGradient id="paint5_linear_43_423" x1="68.1784" y1="33.5622" x2="64.6765" y2="22.4996" gradientUnits="userSpaceOnUse">
<stop offset="0.0520833" stop-color="#1A9079"/>
<stop offset="0.994792" stop-color="#2177B6"/>
</linearGradient>
<linearGradient id="paint6_linear_43_423" x1="39.6263" y1="42.3622" x2="33.799" y2="38.0309" gradientUnits="userSpaceOnUse">
<stop offset="0.0520833" stop-color="#1A9079"/>
<stop offset="0.994792" stop-color="#2177B6"/>
</linearGradient>
<linearGradient id="paint7_linear_43_423" x1="68.1784" y1="42.3622" x2="64.6765" y2="31.2996" gradientUnits="userSpaceOnUse">
<stop offset="0.0520833" stop-color="#1A9079"/>
<stop offset="0.994792" stop-color="#2177B6"/>
</linearGradient>
</defs>
</svg>
