<svg width="89" height="88" viewBox="0 0 89 88" fill="none" xmlns="http://www.w3.org/2000/svg">
<path d="M82.2666 7.48V4.4C82.2666 1.96995 80.2967 0 77.8666 0H76.4C73.9699 0 72 1.96995 72 4.4V7.33333H60.2666V4.4C60.2666 1.96995 58.2967 0 55.8666 0H54.4C51.9699 0 50 1.96995 50 4.4V7.33333H38.2666V4.4C38.2666 1.96995 36.2967 0 33.8666 0H32.4C29.9699 0 28 1.96995 28 4.4V7.33333H16.2666V4.4C16.2666 1.96995 14.2967 0 11.8666 0H10.4C7.96991 0 5.99997 1.96995 5.99997 4.4V7.48C2.58789 8.1817 0.137698 11.1832 0.133301 14.6667V23.4667C0.136447 24.5099 0.695399 25.4725 1.59997 25.9923V82.1333C1.59997 85.3734 4.22656 88 7.46663 88H80.8C84.04 88 86.6666 85.3734 86.6666 82.1333V25.9923C87.5712 25.4725 88.1302 24.5099 88.1333 23.4667V14.6667C88.1289 11.1832 85.6787 8.1817 82.2666 7.48ZM74.9333 4.4C74.9333 3.58998 75.59 2.93333 76.4 2.93333H77.8666C78.6767 2.93333 79.3333 3.58998 79.3333 4.4V13.2C79.3333 14.01 78.6767 14.6667 77.8666 14.6667H76.4C75.59 14.6667 74.9333 14.01 74.9333 13.2V4.4ZM52.9333 4.4C52.9333 3.58998 53.59 2.93333 54.4 2.93333H55.8666C56.6767 2.93333 57.3333 3.58998 57.3333 4.4V13.2C57.3333 14.01 56.6767 14.6667 55.8666 14.6667H54.4C53.59 14.6667 52.9333 14.01 52.9333 13.2V4.4ZM30.9333 4.4C30.9333 3.58998 31.59 2.93333 32.4 2.93333H33.8666C34.6767 2.93333 35.3333 3.58998 35.3333 4.4V13.2C35.3333 14.01 34.6767 14.6667 33.8666 14.6667H32.4C31.59 14.6667 30.9333 14.01 30.9333 13.2V4.4ZM8.9333 4.4C8.9333 3.58998 9.58995 2.93333 10.4 2.93333H11.8666C12.6767 2.93333 13.3333 3.58998 13.3333 4.4V13.2C13.3333 14.01 12.6767 14.6667 11.8666 14.6667H10.4C9.58995 14.6667 8.9333 14.01 8.9333 13.2V4.4ZM3.06663 14.6667C3.07434 12.8087 4.24825 11.1558 5.99997 10.5365V13.2C5.99997 15.6301 7.96991 17.6 10.4 17.6H11.8666C14.2967 17.6 16.2666 15.6301 16.2666 13.2V10.2667H28V13.2C28 15.6301 29.9699 17.6 32.4 17.6H33.8666C36.2967 17.6 38.2666 15.6301 38.2666 13.2V10.2667H50V13.2C50 15.6301 51.9699 17.6 54.4 17.6H55.8666C58.2967 17.6 60.2666 15.6301 60.2666 13.2V10.2667H72V13.2C72 15.6301 73.9699 17.6 76.4 17.6H77.8666C80.2967 17.6 82.2666 15.6301 82.2666 13.2V10.5365C84.0183 11.1558 85.1923 12.8087 85.2 14.6667V23.4667H3.06663V14.6667ZM83.7333 82.1333C83.7333 83.7534 82.42 85.0667 80.8 85.0667H7.46663C5.8466 85.0667 4.5333 83.7534 4.5333 82.1333V26.4H83.7333V82.1333Z" fill="url(#paint0_linear_13_94)"/>
<path d="M13.3333 82.1333H66.1333C66.3354 82.1335 66.5354 82.0911 66.72 82.0087H66.7317L79.9317 76.142C80.4617 75.9067 80.8033 75.3813 80.8033 74.8015C80.8033 74.2216 80.4617 73.6962 79.9317 73.4609L66.7317 67.5943H66.717C66.7024 67.5943 66.6848 67.5943 66.6686 67.5796C66.5171 67.5218 66.357 67.4896 66.1949 67.4843C66.1744 67.4843 66.1567 67.4725 66.1362 67.4725H13.3333C10.0932 67.4725 7.46661 70.0991 7.46661 73.3392V76.2725C7.46985 79.5103 10.0955 82.1333 13.3333 82.1333ZM67.6 78.4095V71.1905L75.7224 74.8L67.6 78.4095ZM64.6666 73.3333H38.2666C37.4566 73.3333 36.7999 73.99 36.7999 74.8C36.7999 75.61 37.4566 76.2667 38.2666 76.2667H64.6666V79.2H27.9999V76.2667H32.4C33.21 76.2667 33.8666 75.61 33.8666 74.8C33.8666 73.99 33.21 73.3333 32.4 73.3333H27.9999V70.4H64.6666V73.3333ZM25.0666 70.4V79.2H20.6666V70.4H25.0666ZM10.3999 73.3333C10.3999 71.7133 11.7132 70.4 13.3333 70.4H17.7333V79.2H13.3333C11.7132 79.2 10.3999 77.8867 10.3999 76.2667V73.3333Z" fill="url(#paint1_linear_13_94)"/>
<path d="M26.5333 64.5334C36.2535 64.5334 44.1333 56.6536 44.1333 46.9334C44.1333 37.2132 36.2535 29.3334 26.5333 29.3334C16.8131 29.3334 8.93329 37.2132 8.93329 46.9334C8.96708 56.6396 16.8271 64.4996 26.5333 64.5334ZM17.9768 35.0534L18.4373 35.8512C18.6974 36.3088 19.1828 36.5918 19.7091 36.593C20.2354 36.5942 20.7219 36.3132 20.9841 35.8568C21.2462 35.4005 21.2437 34.8386 20.9776 34.3846L20.5141 33.5808C21.9524 32.9253 23.4882 32.5091 25.0608 32.3488V33.289C25.0608 34.099 25.7174 34.7556 26.5274 34.7556C27.3374 34.7556 27.9941 34.099 27.9941 33.289V32.3488C29.5666 32.5091 31.1024 32.9253 32.5408 33.5808L32.0773 34.3846C31.8111 34.8386 31.8086 35.4005 32.0708 35.8568C32.3329 36.3132 32.8195 36.5942 33.3458 36.593C33.8721 36.5918 34.3574 36.3088 34.6176 35.8512L35.0781 35.0534C36.3594 35.9783 37.484 37.1029 38.4089 38.3842L37.611 38.8447C37.1535 39.1048 36.8704 39.5902 36.8693 40.1165C36.8681 40.6428 37.149 41.1294 37.6054 41.3915C38.0618 41.6536 38.6237 41.6512 39.0777 41.385L39.8814 40.9215C40.537 42.3598 40.9531 43.8956 41.1134 45.4682H40.1733C39.3633 45.4682 38.7066 46.1248 38.7066 46.9348C38.7066 47.7449 39.3633 48.4015 40.1733 48.4015H41.1134C40.9531 49.974 40.537 51.5098 39.8814 52.9482L39.0777 52.4847C38.6237 52.2185 38.0618 52.216 37.6054 52.4782C37.149 52.7403 36.8681 53.2269 36.8693 53.7532C36.8704 54.2795 37.1535 54.7648 37.611 55.025L38.4089 55.4855C37.4873 56.7649 36.3667 57.8884 35.0898 58.8134L34.6293 58.0155C34.3692 57.558 33.8838 57.2749 33.3575 57.2738C32.8312 57.2726 32.3446 57.5535 32.0825 58.0099C31.8204 58.4663 31.8228 59.0281 32.089 59.4822L32.5525 60.2859C31.1142 60.9415 29.5784 61.3576 28.0058 61.5179V60.5778C28.0058 59.7678 27.3492 59.1111 26.5392 59.1111C25.7291 59.1111 25.0725 59.7678 25.0725 60.5778V61.5179C23.4999 61.3576 21.9642 60.9415 20.5258 60.2859L20.9893 59.4822C21.2555 59.0281 21.258 58.4663 20.9958 58.0099C20.7337 57.5535 20.2471 57.2726 19.7208 57.2738C19.1945 57.2749 18.7092 57.558 18.449 58.0155L17.9885 58.8134C16.7062 57.891 15.5801 56.769 14.6533 55.4899L15.4512 55.0294C15.9087 54.7692 16.1918 54.2839 16.1929 53.7576C16.1941 53.2313 15.9131 52.7447 15.4568 52.4826C15.0004 52.2204 14.4385 52.2229 13.9845 52.4891L13.1808 52.9526C12.5252 51.5142 12.109 49.9785 11.9488 48.4059H12.8889C13.6989 48.4059 14.3556 47.7493 14.3556 46.9392C14.3556 46.1292 13.6989 45.4726 12.8889 45.4726H11.9414C12.1017 43.9 12.5179 42.3642 13.1734 40.9259L13.9772 41.3894C14.4312 41.6556 14.993 41.658 15.4494 41.3959C15.9058 41.1338 16.1867 40.6472 16.1856 40.1209C16.1844 39.5946 15.9014 39.1092 15.4438 38.8491L14.6533 38.3768C15.5766 37.0987 16.6986 35.9767 17.9768 35.0534Z" fill="url(#paint2_linear_13_94)"/>
<path d="M28.2464 52.1474C28.5372 52.5833 29.0385 52.831 29.5615 52.7971C30.0844 52.7633 30.5496 52.453 30.7817 51.9831C31.0139 51.5133 30.9777 50.9553 30.6869 50.5194L28 46.4934V38.1334C28 37.3233 27.3433 36.6667 26.5333 36.6667C25.7233 36.6667 25.0667 37.3233 25.0667 38.1334V46.9334C25.0671 47.223 25.1528 47.5061 25.313 47.7474L28.2464 52.1474Z" fill="url(#paint3_linear_13_94)"/>
<path d="M48.5333 33.7333H76.4C77.21 33.7333 77.8667 33.0767 77.8667 32.2667C77.8667 31.4566 77.21 30.8 76.4 30.8H48.5333C47.7233 30.8 47.0667 31.4566 47.0667 32.2667C47.0667 33.0767 47.7233 33.7333 48.5333 33.7333Z" fill="url(#paint4_linear_13_94)"/>
<path d="M48.5333 41.0666H76.4C77.21 41.0666 77.8667 40.41 77.8667 39.6C77.8667 38.79 77.21 38.1333 76.4 38.1333H48.5333C47.7233 38.1333 47.0667 38.79 47.0667 39.6C47.0667 40.41 47.7233 41.0666 48.5333 41.0666Z" fill="url(#paint5_linear_13_94)"/>
<path d="M48.5333 48.4H76.4C77.21 48.4 77.8667 47.7433 77.8667 46.9333C77.8667 46.1233 77.21 45.4667 76.4 45.4667H48.5333C47.7233 45.4667 47.0667 46.1233 47.0667 46.9333C47.0667 47.7433 47.7233 48.4 48.5333 48.4Z" fill="url(#paint6_linear_13_94)"/>
<path d="M48.5333 55.7333H76.4C77.21 55.7333 77.8667 55.0767 77.8667 54.2666C77.8667 53.4566 77.21 52.8 76.4 52.8H48.5333C47.7233 52.8 47.0667 53.4566 47.0667 54.2666C47.0667 55.0767 47.7233 55.7333 48.5333 55.7333Z" fill="url(#paint7_linear_13_94)"/>
<path d="M48.5333 63.0666H63.2C64.01 63.0666 64.6667 62.41 64.6667 61.6C64.6667 60.7899 64.01 60.1333 63.2 60.1333H48.5333C47.7233 60.1333 47.0667 60.7899 47.0667 61.6C47.0667 62.41 47.7233 63.0666 48.5333 63.0666Z" fill="url(#paint8_linear_13_94)"/>
<defs>
<linearGradient id="paint0_linear_13_94" x1="84.5278" y1="82.8667" x2="-34.705" y2="38.5542" gradientUnits="userSpaceOnUse">
<stop offset="0.0520833" stop-color="#1A9079"/>
<stop offset="0.994792" stop-color="#2177B6"/>
</linearGradient>
<linearGradient id="paint1_linear_13_94" x1="77.7985" y1="81.2781" x2="52.4201" y2="34.0979" gradientUnits="userSpaceOnUse">
<stop offset="0.0520833" stop-color="#1A9079"/>
<stop offset="0.994792" stop-color="#2177B6"/>
</linearGradient>
<linearGradient id="paint2_linear_13_94" x1="42.6911" y1="62.4801" x2="-5.00202" y2="44.755" gradientUnits="userSpaceOnUse">
<stop offset="0.0520833" stop-color="#1A9079"/>
<stop offset="0.994792" stop-color="#2177B6"/>
</linearGradient>
<linearGradient id="paint3_linear_13_94" x1="30.6931" y1="51.8591" x2="21.8084" y2="50.6583" gradientUnits="userSpaceOnUse">
<stop offset="0.0520833" stop-color="#1A9079"/>
<stop offset="0.994792" stop-color="#2177B6"/>
</linearGradient>
<linearGradient id="paint4_linear_13_94" x1="76.6047" y1="33.5622" x2="73.6779" y2="22.1411" gradientUnits="userSpaceOnUse">
<stop offset="0.0520833" stop-color="#1A9079"/>
<stop offset="0.994792" stop-color="#2177B6"/>
</linearGradient>
<linearGradient id="paint5_linear_13_94" x1="76.6047" y1="40.8955" x2="73.6779" y2="29.4744" gradientUnits="userSpaceOnUse">
<stop offset="0.0520833" stop-color="#1A9079"/>
<stop offset="0.994792" stop-color="#2177B6"/>
</linearGradient>
<linearGradient id="paint6_linear_13_94" x1="76.6047" y1="48.2289" x2="73.678" y2="36.8078" gradientUnits="userSpaceOnUse">
<stop offset="0.0520833" stop-color="#1A9079"/>
<stop offset="0.994792" stop-color="#2177B6"/>
</linearGradient>
<linearGradient id="paint7_linear_13_94" x1="76.6047" y1="55.5622" x2="73.678" y2="44.1411" gradientUnits="userSpaceOnUse">
<stop offset="0.0520833" stop-color="#1A9079"/>
<stop offset="0.994792" stop-color="#2177B6"/>
</linearGradient>
<linearGradient id="paint8_linear_13_94" x1="63.9456" y1="62.8955" x2="59.4013" y2="52.7623" gradientUnits="userSpaceOnUse">
<stop offset="0.0520833" stop-color="#1A9079"/>
<stop offset="0.994792" stop-color="#2177B6"/>
</linearGradient>
</defs>
</svg>
