<svg width="88" height="88" viewBox="0 0 88 88" fill="none" xmlns="http://www.w3.org/2000/svg">
<path d="M14.6666 21.9999C15.0556 21.9999 15.4285 21.8453 15.7035 21.5702L21.5702 15.7035C22.126 15.128 22.1181 14.2133 21.5524 13.6475C20.9866 13.0818 20.0718 13.0738 19.4963 13.6297L13.6297 19.4963C13.2103 19.9158 13.0849 20.5465 13.3119 21.0945C13.5388 21.6425 14.0735 21.9998 14.6666 21.9999Z" fill="url(#paint0_linear_13_81)"/>
<path d="M13.6297 30.3702C14.2025 30.9428 15.1309 30.9428 15.7036 30.3702L30.3703 15.7035C30.9261 15.128 30.9181 14.2133 30.3524 13.6475C29.7867 13.0818 28.8719 13.0738 28.2964 13.6297L13.6297 28.2964C13.0572 28.8691 13.0572 29.7975 13.6297 30.3702Z" fill="url(#paint1_linear_13_81)"/>
<path d="M75.7724 60.0541C81.5751 55.0504 83.6541 46.9659 80.9851 39.7837C78.3161 32.6014 71.4621 27.8365 63.8 27.8365C56.1379 27.8365 49.2839 32.6014 46.6149 39.7837C43.9459 46.9659 46.0249 55.0504 51.8276 60.0541C44.5283 62.7368 39.6566 69.6635 39.6 77.44V86.5333C39.6 87.3433 40.2566 88 41.0666 88H86.5333C87.3433 88 88 87.3433 88 86.5333V77.44C87.9434 69.6635 83.0717 62.7368 75.7724 60.0541ZM48.4 46.2C48.4 37.6948 55.2948 30.8 63.8 30.8C72.3052 30.8 79.2 37.6948 79.2 46.2C79.2 54.7051 72.3052 61.6 63.8 61.6C55.2988 61.5903 48.4097 54.7011 48.4 46.2ZM85.0667 85.0666H76.2667V82.1333C76.2667 81.3233 75.61 80.6666 74.8 80.6666C73.99 80.6666 73.3333 81.3233 73.3333 82.1333V85.0666H54.2666V82.1333C54.2666 81.3233 53.61 80.6666 52.8 80.6666C51.99 80.6666 51.3333 81.3233 51.3333 82.1333V85.0666H42.5333V77.44C42.6298 70.1268 47.7075 63.8248 54.8328 62.1749C60.3974 65.3196 67.2026 65.3196 72.7672 62.1749C79.8925 63.8248 84.9702 70.1268 85.0667 77.44V85.0666Z" fill="url(#paint2_linear_13_81)"/>
<path d="M83.6 0H60.1333C57.7033 0 55.7333 1.96995 55.7333 4.4V7.33333H11.7333C9.30328 7.33333 7.33333 9.30328 7.33333 11.7333V49.3973L0.274267 59.2812C0.112529 59.5376 0.0181884 59.8307 0 60.1333V64.5333C0 67.7734 2.6266 70.4 5.86667 70.4H36.8573C37.6674 70.4 38.324 69.7433 38.324 68.9333C38.324 68.1233 37.6674 67.4667 36.8573 67.4667H5.86667C4.24663 67.4667 2.93333 66.1534 2.93333 64.5333V61.6H24.3261L26.8297 64.1036C27.1047 64.3787 27.4777 64.5332 27.8667 64.5333H40.3333C41.1434 64.5333 41.8 63.8767 41.8 63.0667C41.8 62.2566 41.1434 61.6 40.3333 61.6H28.4739L26.6127 59.7373L27.4575 57.2H43.164C43.974 57.2 44.6307 56.5433 44.6307 55.7333C44.6307 54.9233 43.974 54.2667 43.164 54.2667H26.4C25.769 54.2671 25.209 54.6712 25.0096 55.2699L23.8773 58.6667H4.3164L9.55387 51.3333H41.0667C41.8767 51.3333 42.5333 50.6767 42.5333 49.8667C42.5333 49.0566 41.8767 48.4 41.0667 48.4H33.7333V44.7333C33.7333 43.9233 33.0767 43.2667 32.2667 43.2667C31.4566 43.2667 30.8 43.9233 30.8 44.7333V48.4H27.8667V44.6307C27.8408 41.3726 29.9527 38.4825 33.0645 37.5173C37.736 40.1912 43.6777 38.8298 46.7189 34.3888C49.7601 29.9478 48.8814 23.9157 44.6996 20.5269C40.5177 17.1381 34.4345 17.5285 30.7201 21.424C27.0057 25.3195 26.9052 31.4143 30.4891 35.4303C27.0605 37.2148 24.9164 40.7655 24.9333 44.6307V48.4H10.2667V11.7333C10.2667 10.9233 10.9233 10.2667 11.7333 10.2667H55.7333V14.2267L51.6267 20.3779C51.0288 21.2787 50.9749 22.4353 51.4864 23.3878C51.9979 24.3403 52.9919 24.9342 54.0731 24.9333H83.6C86.0301 24.9333 88 22.9634 88 20.5333V4.4C88 1.96995 86.0301 0 83.6 0V0ZM38.1333 21.2667C42.1834 21.2667 45.4667 24.5499 45.4667 28.6C45.4667 32.6501 42.1834 35.9333 38.1333 35.9333C34.0832 35.9333 30.8 32.6501 30.8 28.6C30.8048 24.5519 34.0853 21.2715 38.1333 21.2667ZM85.0667 20.5333C85.0667 21.3433 84.41 22 83.6 22H54.0731L58.4203 15.4807C58.5805 15.2394 58.6662 14.9563 58.6667 14.6667V4.4C58.6667 3.58998 59.3233 2.93333 60.1333 2.93333H83.6C84.41 2.93333 85.0667 3.58998 85.0667 4.4V20.5333Z" fill="url(#paint3_linear_13_81)"/>
<path d="M79.2 7.33331H64.5333C63.7233 7.33331 63.0667 7.98977 63.0667 8.79954C63.0667 9.60932 63.7233 10.2658 64.5333 10.2658H79.2C80.01 10.2658 80.6666 9.60932 80.6666 8.79954C80.6666 7.98977 80.01 7.33331 79.2 7.33331Z" fill="url(#paint4_linear_13_81)"/>
<path d="M79.2 14.6666H64.5333C63.7233 14.6666 63.0667 15.3231 63.0667 16.1329C63.0667 16.9426 63.7233 17.5991 64.5333 17.5991H79.2C80.01 17.5991 80.6666 16.9426 80.6666 16.1329C80.6666 15.3231 80.01 14.6666 79.2 14.6666Z" fill="url(#paint5_linear_13_81)"/>
<defs>
<linearGradient id="paint0_linear_13_81" x1="21.6221" y1="21.4877" x2="9.72352" y2="17.0657" gradientUnits="userSpaceOnUse">
<stop offset="0.0520833" stop-color="#1A9079"/>
<stop offset="0.994792" stop-color="#2177B6"/>
</linearGradient>
<linearGradient id="paint1_linear_13_81" x1="30.0616" y1="29.7741" x2="6.23991" y2="20.9208" gradientUnits="userSpaceOnUse">
<stop offset="0.0520833" stop-color="#1A9079"/>
<stop offset="0.994792" stop-color="#2177B6"/>
</linearGradient>
<linearGradient id="paint2_linear_13_81" x1="86.0169" y1="84.4905" x2="17.5054" y2="64.0068" gradientUnits="userSpaceOnUse">
<stop offset="0.0520833" stop-color="#1A9079"/>
<stop offset="0.994792" stop-color="#2177B6"/>
</linearGradient>
<linearGradient id="paint3_linear_13_81" x1="84.3945" y1="66.2933" x2="-27.219" y2="14.4423" gradientUnits="userSpaceOnUse">
<stop offset="0.0520833" stop-color="#1A9079"/>
<stop offset="0.994792" stop-color="#2177B6"/>
</linearGradient>
<linearGradient id="paint4_linear_13_81" x1="79.9455" y1="10.0947" x2="75.4035" y2="-0.03653" gradientUnits="userSpaceOnUse">
<stop offset="0.0520833" stop-color="#1A9079"/>
<stop offset="0.994792" stop-color="#2177B6"/>
</linearGradient>
<linearGradient id="paint5_linear_13_81" x1="79.9455" y1="17.428" x2="75.4035" y2="7.29678" gradientUnits="userSpaceOnUse">
<stop offset="0.0520833" stop-color="#1A9079"/>
<stop offset="0.994792" stop-color="#2177B6"/>
</linearGradient>
</defs>
</svg>
