<svg xmlns="http://www.w3.org/2000/svg" viewBox="0 0 259.17 227.16"><defs><style>.cls-1,.cls-2,.cls-3{fill:none;stroke:#fff;stroke-width:10.12px;}.cls-1{stroke-linecap:round;}.cls-1,.cls-3{stroke-linejoin:round;}.cls-2{stroke-miterlimit:10;}</style></defs><title>Mesa de trabajo 3</title><g id="icons"><line class="cls-1" x1="61.58" y1="83" x2="235.82" y2="83"/><line class="cls-2" x1="149.33" y1="38.83" x2="149.33" y2="130.59"/><line class="cls-2" x1="201.49" y1="38.83" x2="189.43" y2="124.04"/><line class="cls-2" x1="97.28" y1="38.57" x2="111.59" y2="136.26"/><path class="cls-3" d="M232.27,169h-156c-10.27,0-11.86-22.77,4.12-26.29l143.35-23.55,30.33-81.63H47.34"/><polyline class="cls-1" points="70.94 121.27 34.62 5.06 5.06 5.06"/><path class="cls-1" d="M106.8,206.43a15.68,15.68,0,1,1-15.67-15.67A15.68,15.68,0,0,1,106.8,206.43Z"/><path class="cls-1" d="M222.21,206.43a15.68,15.68,0,1,1-15.67-15.67A15.68,15.68,0,0,1,222.21,206.43Z"/></g></svg>