<svg width="70" height="70" viewBox="0 0 70 70" fill="none" xmlns="http://www.w3.org/2000/svg">
<path d="M30.4735 53.0469H37.5133C38.1173 53.0469 38.6071 52.5571 38.6071 51.9531V36.1065H42.2644C42.8251 36.1065 43.295 35.6825 43.3524 35.1248L43.969 29.1404C44.0008 28.8325 43.9005 28.5254 43.693 28.2956C43.4856 28.0656 43.1906 27.9345 42.881 27.9345H38.6071V25.5105C38.6071 25.0098 38.7655 24.9724 39.0074 24.9724H42.792C43.396 24.9724 43.8858 24.4826 43.8858 23.8786V18.0681C43.8858 17.4657 43.3988 16.9768 42.7964 16.9743L37.5769 16.9531C33.9194 16.9531 31.9675 18.5623 30.9741 19.9121C29.5869 21.7971 29.3798 24.0056 29.3798 25.1543V27.9344H27.1254C26.5214 27.9344 26.0317 28.4241 26.0317 29.0281V35.0126C26.0317 35.6166 26.5214 36.1063 27.1254 36.1063H29.3798V51.9531C29.3798 52.5571 29.8694 53.0469 30.4735 53.0469ZM28.219 33.919V30.122H30.4734C31.0774 30.122 31.5671 29.6323 31.5671 29.0283V25.1545C31.5671 24.4456 31.681 22.6421 32.7357 21.2088C33.7455 19.8365 35.3743 19.1408 37.5722 19.1408L41.698 19.1574V22.785H39.0071C37.7191 22.785 36.4193 23.6277 36.4193 25.5106V29.0284C36.4193 29.6324 36.909 30.1221 37.513 30.1221H41.6686L41.2773 33.9191H37.513C36.909 33.9191 36.4193 34.4088 36.4193 35.0129V50.8594H31.567V35.0127C31.567 34.4087 31.0773 33.919 30.4733 33.919H28.219Z" fill="white" fill-opacity="0.9"/>
<path d="M59.7491 10.2517C53.1385 3.64082 44.349 0 35 0C25.6517 0 16.8626 3.64082 10.2517 10.2517C3.64082 16.8626 0 25.6517 0 35C0 44.3499 3.64082 53.1396 10.2517 59.7499C16.8622 66.3599 25.6513 70 35 70C44.3495 70 53.1389 66.3599 59.749 59.7499C66.3595 53.1397 70 44.3501 70 35C70 25.6514 66.3595 16.8623 59.7491 10.2517ZM58.2023 58.2031C52.0052 64.3999 43.7652 67.8125 35 67.8125C26.2355 67.8125 17.9957 64.3999 11.7984 58.2031C5.60068 52.0059 2.1875 43.7654 2.1875 35C2.1875 26.2361 5.60068 17.9963 11.7984 11.7986C17.9963 5.60068 26.2361 2.1875 35 2.1875C43.7648 2.1875 52.0048 5.60068 58.2023 11.7984C64.3996 17.996 67.8125 26.2358 67.8125 35C67.8125 43.7657 64.3996 52.006 58.2023 58.2031Z" fill="white" fill-opacity="0.9"/>
<path d="M58.7942 15.7184C58.4136 15.2492 57.725 15.1774 57.2557 15.5582C56.7867 15.9388 56.7149 16.6276 57.0955 17.0965C61.1852 22.1373 63.4375 28.4956 63.4375 35C63.4375 42.597 60.4796 49.7387 55.1087 55.1094C49.7378 60.4798 42.5965 63.4375 35 63.4375C27.9918 63.4375 21.2591 60.8662 16.0421 56.1974C15.5921 55.7946 14.9005 55.8329 14.4978 56.283C14.095 56.7331 14.1333 57.4246 14.5834 57.8274C20.2019 62.8557 27.4527 65.625 35 65.625C43.1808 65.625 50.8715 62.4398 56.6554 56.6561C62.4396 50.8722 65.625 43.1812 65.625 35C65.625 27.9953 63.199 21.1478 58.7942 15.7184Z" fill="white" fill-opacity="0.9"/>
<path d="M6.5625 35C6.5625 19.3196 19.3196 6.5625 35 6.5625C42.0082 6.5625 48.7408 9.13391 53.9577 13.803C54.4079 14.206 55.0994 14.1675 55.5021 13.7175C55.905 13.2675 55.8667 12.5759 55.4166 12.1732C49.798 7.14437 42.5473 4.375 35 4.375C26.8203 4.375 19.1298 7.56068 13.3453 13.3453C7.56068 19.1297 4.375 26.8203 4.375 35C4.375 42.0055 6.80094 48.8534 11.2059 54.2825C11.422 54.549 11.7376 54.6872 12.0559 54.6872C12.298 54.6872 12.5416 54.6072 12.7444 54.4428C13.2135 54.0621 13.2852 53.3734 12.9046 52.9043C8.81481 47.8636 6.5625 41.5051 6.5625 35Z" fill="white" fill-opacity="0.9"/>
</svg>
