<svg width="70" height="70" viewBox="0 0 70 70" fill="none" xmlns="http://www.w3.org/2000/svg">
<path d="M59.7487 10.2518C53.1386 3.64097 44.3486 0 35 0C25.6514 0 16.8628 3.64097 10.2518 10.2518C3.64097 16.8628 0 25.6514 0 35C0 44.35 3.64097 53.1391 10.2518 59.7494C16.8621 66.3597 25.6514 70 35 70C44.3493 70 53.1386 66.3597 59.7487 59.7494C66.359 53.1391 70 44.35 70 35C70 25.6514 66.359 16.8621 59.7487 10.2518ZM58.2019 58.2026C52.005 64.3997 43.7652 67.8123 35 67.8123C26.2355 67.8123 17.9957 64.3997 11.7986 58.2026C5.60083 52.0057 2.18766 43.7652 2.18766 35C2.18766 26.2362 5.60083 17.9964 11.7986 11.7986C17.9964 5.60083 26.2362 2.18766 35 2.18766C43.7645 2.18766 52.0043 5.60083 58.2019 11.7986C64.399 17.9957 67.8123 26.2355 67.8123 35C67.8123 43.7659 64.399 52.0057 58.2019 58.2026Z" fill="white" fill-opacity="0.9"/>
<path d="M58.7941 15.7187C58.4137 15.2492 57.7246 15.1773 57.2553 15.5584C56.786 15.9389 56.7146 16.6278 57.0952 17.0964C61.1848 22.1372 63.437 28.4951 63.437 35C63.437 42.5969 60.4791 49.7386 55.1085 55.1092C49.7379 60.4798 42.5962 63.437 35 63.437C27.9919 63.437 21.2588 60.8662 16.0424 56.1973C15.5917 55.7941 14.9008 55.8328 14.4976 56.2827C14.0951 56.7327 14.1331 57.4243 14.5831 57.8268C20.202 62.8556 27.4525 65.6247 35 65.6247C43.1804 65.6247 50.8715 62.4397 56.6553 56.656C62.439 50.8721 65.6247 43.181 65.6247 35C65.6247 27.9951 63.1988 21.1479 58.7941 15.7187Z" fill="white" fill-opacity="0.9"/>
<path d="M6.56211 35C6.56211 19.3194 19.3194 6.56208 35 6.56208C42.0082 6.56208 48.7405 9.13358 53.9575 13.8027C54.4075 14.2058 55.0991 14.167 55.5017 13.7172C55.9049 13.2672 55.8661 12.5756 55.4163 12.173C49.798 7.14433 42.5468 4.37527 35 4.37527C26.8203 4.37527 19.1299 7.56081 13.3454 13.3453C7.56084 19.1297 4.37531 26.8201 4.37531 35C4.37531 42.0054 6.8012 48.8533 11.2057 54.282C11.4221 54.5489 11.7372 54.6872 12.0556 54.6872C12.2979 54.6872 12.5416 54.607 12.7445 54.4421C13.2131 54.0617 13.2852 53.3728 12.9048 52.904C8.81454 47.8633 6.56211 41.5047 6.56211 35Z" fill="white" fill-opacity="0.9"/>
<path d="M44.1924 17.4529H25.8756C21.2313 17.4529 17.4529 21.2315 17.4529 25.8758V44.1924C17.4529 48.8369 21.2313 52.6153 25.8756 52.6153H44.1924C48.8367 52.6153 52.6149 48.8369 52.6149 44.1924V25.8758C52.6149 21.2315 48.8367 17.4529 44.1924 17.4529ZM50.3974 44.1922C50.3974 47.6136 47.6138 50.3974 44.1924 50.3974H25.8756C22.4544 50.3974 19.6712 47.6136 19.6712 44.1922V25.8758C19.6712 22.4546 22.4546 19.6713 25.8756 19.6713H44.1924C47.6138 19.6713 50.3974 22.4547 50.3974 25.8758V44.1922Z" fill="white" fill-opacity="0.9"/>
<path d="M44.8612 23.8792C44.1164 23.8792 43.5104 24.485 43.5104 25.2294C43.5104 25.9738 44.1164 26.5795 44.8612 26.5795C45.6056 26.5795 46.2113 25.9738 46.2113 25.2294C46.2113 24.485 45.6056 23.8792 44.8612 23.8792Z" fill="white" fill-opacity="0.9"/>
<path d="M35.0337 26.4156C30.2817 26.4156 26.4157 30.2816 26.4157 35.0336C26.4157 39.7859 30.2817 43.6523 35.0337 43.6523C39.786 43.6523 43.6524 39.7859 43.6524 35.0336C43.6524 30.2816 39.786 26.4156 35.0337 26.4156ZM35.0337 41.4348C31.5043 41.4348 28.6331 38.5632 28.6331 35.0336C28.6331 31.5049 31.5043 28.6342 35.0337 28.6342C38.5627 28.6342 41.4336 31.5049 41.4336 35.0336C41.4338 38.5632 38.5627 41.4348 35.0337 41.4348Z" fill="white" fill-opacity="0.9"/>
</svg>
