<svg width="70" height="70" viewBox="0 0 70 70" fill="none" xmlns="http://www.w3.org/2000/svg">
<path d="M67.0778 20.9784C65.2051 16.7002 62.5338 12.8904 59.1381 9.65549C58.6996 9.23781 58.0061 9.25449 57.5884 9.69309C57.1709 10.1314 57.1877 10.8251 57.626 11.2425C64.1918 17.4975 67.8079 25.9349 67.8079 35C67.8079 53.0904 53.0904 67.808 34.9999 67.808C16.9094 67.808 2.19201 53.0904 2.19201 35C2.19201 16.9096 16.9096 2.19201 35 2.19201C41.6084 2.19201 47.9787 4.14791 53.4218 7.84793C53.9223 8.18822 54.604 8.0582 54.9444 7.55781C55.2847 7.05715 55.1547 6.37547 54.6541 6.03518C48.8461 2.08701 42.0499 0 35 0C25.6512 0 16.8619 3.64055 10.2513 10.2513C3.64068 16.8619 0 25.6512 0 35C0 44.3488 3.64068 53.1381 10.2513 59.7487C16.8619 66.3595 25.6512 70 35 70C44.3488 70 53.1381 66.3595 59.7487 59.7487C66.3593 53.1381 70 44.3488 70 35C70 30.1257 69.0167 25.4081 67.0778 20.9784Z" fill="white" fill-opacity="0.9"/>
<path d="M50.9049 14.8412L29.8261 24.6536C29.2774 24.909 29.0396 25.5612 29.2951 26.11C29.5507 26.6588 30.2027 26.8968 30.7512 26.6411L43.754 20.588L37.4325 25.7056L22.9257 37.4491L14.9911 33.9776L26.1099 28.8017C26.6586 28.546 26.8964 27.8941 26.6409 27.3454C26.3855 26.7966 25.7332 26.5585 25.1848 26.8142L13.2165 32.3858C12.5802 32.6819 12.1785 33.3298 12.1946 34.0312C12.2103 34.7175 12.6251 35.3352 13.2539 35.6103L22.1136 39.4863L24.7084 55.0548C24.868 56.0175 26.1715 56.2916 26.7062 55.4752L34.0666 44.2409L47.9861 50.7367C49.1013 51.2576 50.4284 50.4616 50.5003 49.2374L52.4614 15.8987C52.4635 15.8678 52.4634 15.8361 52.4627 15.8051C52.4408 15.0292 51.6074 14.5164 50.9049 14.8412ZM25.979 49.3461L24.2832 39.1704L41.5602 25.1842L28.337 40.0102C28.2181 40.1436 28.1297 40.3115 28.0887 40.4858L25.979 49.3461ZM28.3075 49.0317L29.9098 42.3013L32.0596 43.3045L28.3075 49.0317ZM33.2734 41.452L30.9537 40.3696L42.3654 27.5746L40.7148 30.0941L33.2734 41.452ZM48.3488 48.4873L35.2804 42.3887L50.0319 19.8733L48.3488 48.4873Z" fill="white" fill-opacity="0.9"/>
</svg>
