<svg width="70" height="70" viewBox="0 0 70 70" fill="none" xmlns="http://www.w3.org/2000/svg">
<path d="M59.7033 10.1556C53.1542 3.60703 44.4464 0 35.1848 0C27.9002 0 20.9281 2.2345 15.0225 6.46263C14.4083 6.90216 14.2668 7.75612 14.7063 8.37029C15.1464 8.98445 16.0003 9.12544 16.614 8.68591C22.0528 4.79263 28.4743 2.73438 35.1848 2.73438C52.7964 2.73438 67.1246 17.0626 67.1246 34.6748C67.1246 52.2864 52.7964 66.6146 35.1848 66.6146C29.8196 66.6146 24.5137 65.2586 19.8407 62.693C19.5305 62.5232 19.1668 62.4799 18.826 62.5718L3.60646 66.6851L7.75608 51.8757C7.85649 51.5179 7.80682 51.1349 7.61883 50.815C4.75682 45.938 3.24437 40.3571 3.24437 34.6748C3.24437 27.9638 5.30262 21.5423 9.1959 16.104C9.63543 15.4903 9.49391 14.6364 8.88028 14.1969C8.26611 13.7573 7.41215 13.8983 6.97262 14.5125C2.74449 20.4176 0.50999 27.3897 0.50999 34.6748C0.50999 40.6471 2.04968 46.517 4.9683 51.6909L0.324138 68.2638C0.191158 68.7375 0.323604 69.2459 0.669139 69.5952C0.92976 69.8574 1.28064 70 1.64059 70C1.75969 70 1.87931 69.9845 1.99734 69.9525L19.014 65.3537C23.9685 67.969 29.5472 69.349 35.1842 69.349C44.4464 69.349 53.1542 65.7425 59.7028 59.1928C66.252 52.6442 69.859 43.9364 69.859 34.6742C69.859 25.4126 66.2525 16.7053 59.7033 10.1556Z" fill="white" fill-opacity="0.9"/>
<path d="M57.5954 51.2476C58.2235 51.6669 59.0726 51.4976 59.4919 50.8695C62.6962 46.0683 64.3902 40.4682 64.3902 34.6742C64.3902 26.8727 61.3525 19.538 55.8368 14.0222C50.321 8.50647 42.9868 5.46875 35.1848 5.46875C27.3827 5.46875 20.048 8.50647 14.5322 14.0222C9.01648 19.538 5.97876 26.8727 5.97876 34.6748C5.97876 39.8711 7.36143 44.9735 9.97725 49.4308L10.8595 50.9347L8.18655 60.474C8.05357 60.9472 8.18549 61.4556 8.53156 61.8049C8.87762 62.1542 9.38498 62.2909 9.85976 62.1627L19.7078 59.501L21.1561 60.2962C25.4275 62.6412 30.2784 63.8802 35.1842 63.8802C40.9788 63.8802 46.5789 62.1862 51.3795 58.9813C52.0076 58.5626 52.1769 57.7135 51.7576 57.0854C51.3384 56.4574 50.4898 56.2881 49.8617 56.7073C45.5118 59.611 40.4367 61.1459 35.1842 61.1459C30.7371 61.1459 26.3413 60.0233 22.4721 57.8993L20.5409 56.8387C20.2312 56.6689 19.8675 56.6256 19.5262 56.7175L11.4683 58.8953L13.6494 51.1125C13.7493 50.7547 13.7002 50.3718 13.5122 50.0519L12.3351 48.0465C9.9655 44.0085 8.71313 39.3846 8.71313 34.6742C8.71313 20.0779 20.5884 8.20312 35.1848 8.20312C49.7811 8.20312 61.6559 20.0779 61.6559 34.6748C61.6559 39.9261 60.121 45.0013 57.2173 49.3517C56.7981 49.9798 56.9674 50.8284 57.5954 51.2476Z" fill="white" fill-opacity="0.9"/>
<path d="M30.1881 30.475L30.2784 30.3698C31.503 28.9951 31.1938 27.3806 30.7184 26.2687C30.0162 24.6265 28.179 20.4288 28.0049 20.0315C27.7336 19.3457 26.8284 18.2595 25.0078 18.2215C23.5882 18.1927 23.1215 18.2328 23.0125 18.2461C23.0013 18.2472 22.9901 18.2488 22.9794 18.2504C22.7701 18.2808 17.8461 19.0776 16.9958 26.4578C16.6049 29.8507 18.1761 33.8924 21.6656 38.472C25.529 43.5418 29.0805 46.5608 34.3324 49.2386C36.9477 50.5721 40.7678 52.1332 44.3241 52.1332C44.4395 52.1332 44.5548 52.1316 44.6691 52.1278C48.6633 52.0114 50.7963 50.3515 51.8821 48.9795C53.0346 47.5232 53.2754 46.0882 53.3102 45.8393C53.3331 45.6812 53.3887 45.1824 53.4239 43.883C53.473 42.0624 52.4306 41.1065 51.7587 40.8026C51.379 40.6141 47.4644 38.6733 45.8595 37.8952C44.7759 37.3691 43.1828 37.069 41.7489 38.6247C41.7414 38.6327 41.7345 38.6407 41.7275 38.6477C41.5336 38.817 41.3419 39.0696 40.7593 39.8493C40.4004 40.3294 39.6842 41.2875 39.3798 41.6074C38.7368 41.6528 36.5867 40.7059 33.5388 38.3459C31.6178 36.858 29.5665 34.5418 28.4316 32.5797C28.4204 32.5519 28.4135 32.5012 28.4167 32.4756C28.8872 31.9917 29.653 31.1025 30.1881 30.475ZM31.8645 40.5078C32.7756 41.2133 34.5621 42.5276 36.2892 43.404C37.1058 43.8179 39.5907 45.0788 41.123 43.7228C41.5459 43.3484 42.1467 42.5596 42.9489 41.4862C43.1801 41.177 43.4643 40.7972 43.5743 40.6659C43.6458 40.6007 43.7051 40.5366 43.7591 40.4779C44.0053 40.2108 44.1174 40.0891 44.6659 40.355C46.3129 41.154 50.422 43.192 50.5694 43.2646C50.6201 43.3153 50.6991 43.4803 50.6901 43.8088C50.6596 44.9421 50.6153 45.3517 50.6062 45.4286C50.6003 45.4569 50.603 45.4398 50.5998 45.4708C50.5838 45.5637 50.4118 46.4802 49.6583 47.38C48.5955 48.65 46.8902 49.3277 44.5895 49.3945C41.5134 49.4858 37.9902 48.0348 35.5741 46.8027C30.6586 44.2959 27.4783 41.5887 23.8398 36.8142C20.8362 32.8729 19.4087 29.3994 19.7115 26.7702C20.2819 21.82 22.9949 21.0424 23.3586 20.9602C23.4868 20.9522 23.9204 20.934 24.9512 20.9554C25.2796 20.9623 25.4404 21.0494 25.489 21.1023C25.5568 21.2571 27.4842 25.6599 28.2036 27.3433C28.563 28.1844 28.3424 28.4322 28.2361 28.5513C28.2169 28.5727 28.2004 28.5919 28.1859 28.6079L28.1074 28.7003C27.3176 29.6258 26.7616 30.2555 26.4551 30.57C25.4457 31.6072 25.5413 33.0427 26.0583 33.9378C27.3731 36.2161 29.6525 38.7945 31.8645 40.5078Z" fill="white" fill-opacity="0.9"/>
<path d="M11.6328 12.4896C11.9613 12.4896 12.2908 12.3721 12.5525 12.1339C13.1111 11.626 13.1527 10.7614 12.6449 10.2027C12.1364 9.64411 11.2723 9.60299 10.7132 10.1109L10.7126 10.1114C10.154 10.6193 10.1134 11.4834 10.6213 12.0426C10.891 12.339 11.2611 12.4896 11.6328 12.4896Z" fill="white" fill-opacity="0.9"/>
<path d="M53.8581 53.4393L53.8576 53.4404C53.3497 53.999 53.3914 54.8631 53.95 55.371C54.2117 55.6092 54.5406 55.7267 54.8691 55.7267C55.2408 55.7267 55.6114 55.5755 55.8811 55.2786C56.3896 54.72 56.3479 53.8553 55.7893 53.3475C55.2307 52.8396 54.366 52.8807 53.8581 53.4393Z" fill="white" fill-opacity="0.9"/>
</svg>
